<?xml version="1.0" standalone="yes"?>
<svg xmlns="http://www.w3.org/2000/svg" width="640" height="640">
<path style="fill:#030203; stroke:none;" d="M0 0L0 640L640 640L640 0L0 0z"/>
<path style="fill:#e9bb5b; stroke:none;" d="M60 25L60 30L50 30L50 35L40 35L40 40L35 40L35 45L30 45L30 50L25 50L25 60L20 60L20 70L15 70L15 90L20 90L20 100L25 100L25 110L30 110L30 115L35 115L35 120L40 120L40 125L50 125L50 130L60 130L60 135L90 135L90 130L100 130L100 125L110 125L110 120L115 120L115 115L120 115L120 110L125 110L125 100L130 100L130 90L135 90L135 70L130 70L130 60L125 60L125 50L120 50L120 45L115 45L115 40L110 40L110 35L100 35L100 30L90 30L90 25L60 25M225 25L225 30L215 30L215 35L205 35L205 40L200 40L200 45L195 45L195 50L190 50L190 60L185 60L185 70L180 70L180 90L185 90L185 100L190 100L190 110L195 110L195 115L200 115L200 120L205 120L205 125L215 125L215 130L225 130L225 135L250 135L250 130L260 130L260 125L270 125L270 120L275 120L275 115L280 115L280 110L285 110L285 100L290 100L290 90L295 90L295 70L290 70L290 60L285 60L285 50L280 50L280 45L275 45L275 40L270 40L270 35L260 35L260 30L250 30L250 25L225 25M380 25L380 30L370 30L370 35L360 35L360 40L355 40L355 45L350 45L350 50L345 50L345 60L340 60L340 70L335 70L335 90L340 90L340 100L345 100L345 110L350 110L350 115L355 115L355 120L360 120L360 125L370 125L370 130L380 130L380 135L410 135L410 130L420 130L420 125L430 125L430 120L435 120L435 115L440 115L440 110L445 110L445 100L450 100L450 90L455 90L455 70L450 70L450 60L445 60L445 50L440 50L440 45L435 45L435 40L430 40L430 35L420 35L420 30L410 30L410 25L380 25M540 25L540 30L530 30L530 35L520 35L520 40L515 40L515 45L510 45L510 50L505 50L505 60L500 60L500 70L495 70L495 90L500 90L500 100L505 100L505 110L510 110L510 115L515 115L515 120L520 120L520 125L530 125L530 130L540 130L540 135L570 135L570 130L580 130L580 125L590 125L590 120L595 120L595 115L600 115L600 110L605 110L605 100L610 100L610 90L615 90L615 70L610 70L610 60L605 60L605 50L600 50L600 45L595 45L595 40L590 40L590 35L580 35L580 30L570 30L570 25L540 25z"/>
<path style="fill:#cc4449; stroke:none;" d="M60 30L60 35L55 35L55 40L45 40L45 45L40 45L40 50L35 50L35 55L30 55L30 65L25 65L25 95L30 95L30 105L35 105L35 110L40 110L40 115L45 115L45 120L55 120L55 125L60 125L60 130L90 130L90 125L95 125L95 120L105 120L105 115L110 115L110 110L115 110L115 105L120 105L120 100L115 100L115 95L125 95L125 65L120 65L120 55L115 55L115 50L105 50L105 40L95 40L95 35L90 35L90 30L60 30z"/>
<path style="fill:#b1d4e5; stroke:none;" d="M225 30L225 35L220 35L220 40L210 40L210 45L205 45L205 50L200 50L200 55L195 55L195 65L190 65L190 95L195 95L195 105L200 105L200 110L205 110L205 115L210 115L210 120L220 120L220 125L240 125L240 120L245 120L245 125L255 125L255 120L270 120L270 115L275 115L275 110L280 110L280 100L285 100L285 60L280 60L280 50L275 50L275 45L270 45L270 40L260 40L260 35L250 35L250 30L225 30z"/>
<path style="fill:#cc4449; stroke:none;" d="M240 35L240 40L245 40L245 35L240 35M530 35L530 40L525 40L525 45L520 45L520 50L515 50L515 55L510 55L510 60L505 60L505 100L510 100L510 105L515 105L515 110L520 110L520 115L525 115L525 120L530 120L530 125L580 125L580 120L585 120L585 115L590 115L590 110L595 110L595 105L600 105L600 100L605 100L605 60L600 60L600 55L595 55L595 50L590 50L590 45L585 45L585 40L580 40L580 35L530 35z"/>
<path style="fill:#1871be; stroke:none;" d="M75 40L75 45L70 45L70 50L75 50L75 45L80 45L80 40L75 40z"/>
<path style="fill:#cc4449; stroke:none;" d="M225 40L225 45L220 45L220 50L225 50L225 45L230 45L230 40L225 40M380 40L380 45L375 45L375 50L380 50L380 45L385 45L385 40L380 40z"/>
<path style="fill:#b1d4e5; stroke:none;" d="M400 40L400 45L395 45L395 50L400 50L400 45L405 45L405 40L400 40M545 40L545 45L540 45L540 50L545 50L545 45L550 45L550 40L545 40z"/>
<path style="fill:#cc4449; stroke:none;" d="M250 45L250 50L255 50L255 55L260 55L260 50L255 50L255 45L250 45z"/>
<path style="fill:#b1d4e5; stroke:none;" d="M560 45L560 50L555 50L555 55L560 55L560 50L565 50L565 45L560 45z"/>
<path style="fill:#e9bb5b; stroke:none;" d="M50 50L50 55L45 55L45 60L50 60L50 55L55 55L55 50L50 50M100 50L100 55L105 55L105 50L100 50z"/>
<path style="fill:#1871be; stroke:none;" d="M210 50L210 55L215 55L215 50L210 50M235 50L235 55L240 55L240 50L235 50z"/>
<path style="fill:#b1d4e5; stroke:none;" d="M360 50L360 55L365 55L365 60L370 60L370 55L365 55L365 50L360 50z"/>
<path style="fill:#cc4449; stroke:none;" d="M410 50L410 55L415 55L415 50L410 50z"/>
<path style="fill:#1871be; stroke:none;" d="M35 55L35 60L40 60L40 55L35 55z"/>
<path style="fill:#cc4449; stroke:none;" d="M220 55L220 60L225 60L225 65L230 65L230 60L225 60L225 55L220 55z"/>
<path style="fill:#e9bb5b; stroke:none;" d="M245 55L245 60L250 60L250 65L255 65L255 60L250 60L250 55L245 55z"/>
<path style="fill:#b1d4e5; stroke:none;" d="M425 55L425 60L430 60L430 65L435 65L435 60L430 60L430 55L425 55z"/>
<path style="fill:#e9bb5b; stroke:none;" d="M520 55L520 60L525 60L525 65L530 65L530 60L525 60L525 55L520 55z"/>
<path style="fill:#b1d4e5; stroke:none;" d="M570 55L570 60L575 60L575 55L570 55z"/>
<path style="fill:#1871be; stroke:none;" d="M120 60L120 65L125 65L125 60L120 60z"/>
<path style="fill:#cc4449; stroke:none;" d="M205 60L205 65L210 65L210 60L205 60z"/>
<path style="fill:#1871be; stroke:none;" d="M260 60L260 65L265 65L265 60L260 60z"/>
<path style="fill:#cc4449; stroke:none;" d="M355 60L355 65L360 65L360 70L365 70L365 65L360 65L360 60L355 60z"/>
<path style="fill:#030203; stroke:none;" d="M385 60L385 65L380 65L380 70L375 70L375 85L380 85L380 90L385 90L385 95L405 95L405 90L410 90L410 85L415 85L415 70L410 70L410 65L405 65L405 60L385 60z"/>
<path style="fill:#b1d4e5; stroke:none;" d="M580 60L580 65L575 65L575 70L580 70L580 65L585 65L585 60L580 60z"/>
<path style="fill:#1871be; stroke:none;" d="M35 65L35 70L30 70L30 75L35 75L35 70L40 70L40 65L35 65M50 65L50 70L55 70L55 65L50 65z"/>
<path style="fill:#030203; stroke:none;" d="M60 65L60 75L55 75L55 95L65 95L65 100L80 100L80 95L90 95L90 75L85 75L85 65L60 65z"/>
<path style="fill:#1871be; stroke:none;" d="M115 65L115 70L120 70L120 65L115 65z"/>
<path style="fill:#e9bb5b; stroke:none;" d="M195 65L195 70L200 70L200 75L205 75L205 70L200 70L200 65L195 65z"/>
<path style="fill:#030203; stroke:none;" d="M230 65L230 70L220 70L220 90L230 90L230 95L245 95L245 90L255 90L255 70L245 70L245 65L230 65z"/>
<path style="fill:#cc4449; stroke:none;" d="M275 65L275 70L280 70L280 65L275 65z"/>
<path style="fill:#b1d4e5; stroke:none;" d="M385 65L385 70L380 70L380 85L385 85L385 90L405 90L405 85L410 85L410 70L405 70L405 65L385 65z"/>
<path style="fill:#030203; stroke:none;" d="M545 65L545 70L540 70L540 75L535 75L535 90L540 90L540 95L545 95L545 100L565 100L565 95L570 95L570 90L575 90L575 75L570 75L570 70L565 70L565 65L545 65z"/>
<path style="fill:#b1d4e5; stroke:none;" d="M65 70L65 75L60 75L60 90L65 90L65 95L80 95L80 90L85 90L85 75L80 75L80 70L65 70M230 70L230 75L225 75L225 85L230 85L230 90L245 90L245 85L250 85L250 75L245 75L245 70L230 70z"/>
<path style="fill:#cc4449; stroke:none;" d="M430 70L430 75L435 75L435 70L430 70z"/>
<path style="fill:#b1d4e5; stroke:none;" d="M545 70L545 75L540 75L540 90L545 90L545 95L565 95L565 90L570 90L570 75L565 75L565 70L545 70z"/>
<path style="fill:#cc4449; stroke:none;" d="M270 75L270 80L275 80L275 75L270 75z"/>
<path style="fill:#b1d4e5; stroke:none;" d="M515 75L515 80L520 80L520 85L525 85L525 80L520 80L520 75L515 75M595 75L595 80L590 80L590 85L595 85L595 80L600 80L600 75L595 75z"/>
<path style="fill:#e9bb5b; stroke:none;" d="M100 80L100 85L105 85L105 90L110 90L110 85L105 85L105 80L100 80z"/>
<path style="fill:#cc4449; stroke:none;" d="M195 80L195 85L200 85L200 90L205 90L205 85L200 85L200 80L195 80z"/>
<path style="fill:#1871be; stroke:none;" d="M210 80L210 85L215 85L215 80L210 80z"/>
<path style="fill:#cc4449; stroke:none;" d="M350 85L350 90L355 90L355 85L350 85z"/>
<path style="fill:#1871be; stroke:none;" d="M110 90L110 95L115 95L115 90L110 90M260 90L260 95L265 95L265 90L260 90z"/>
<path style="fill:#cc4449; stroke:none;" d="M275 90L275 95L270 95L270 100L275 100L275 95L280 95L280 90L275 90z"/>
<path style="fill:#e9bb5b; stroke:none;" d="M590 90L590 95L585 95L585 100L590 100L590 95L595 95L595 90L590 90M50 95L50 100L55 100L55 95L50 95z"/>
<path style="fill:#1871be; stroke:none;" d="M115 95L115 100L120 100L120 95L115 95z"/>
<path style="fill:#e9bb5b; stroke:none;" d="M250 95L250 100L245 100L245 105L250 105L250 100L255 100L255 95L250 95z"/>
<path style="fill:#cc4449; stroke:none;" d="M425 95L425 100L420 100L420 105L425 105L425 100L430 100L430 95L425 95z"/>
<path style="fill:#b1d4e5; stroke:none;" d="M520 95L520 100L525 100L525 105L530 105L530 100L525 100L525 95L520 95z"/>
<path style="fill:#e9bb5b; stroke:none;" d="M55 100L55 105L60 105L60 100L55 100z"/>
<path style="fill:#1871be; stroke:none;" d="M105 100L105 105L110 105L110 100L105 100M210 100L210 105L215 105L215 100L210 100z"/>
<path style="fill:#b1d4e5; stroke:none;" d="M370 100L370 105L365 105L365 110L370 110L370 105L375 105L375 100L370 100z"/>
<path style="fill:#1871be; stroke:none;" d="M40 105L40 110L45 110L45 105L40 105z"/>
<path style="fill:#cc4449; stroke:none;" d="M225 105L225 110L230 110L230 105L225 105M260 105L260 110L255 110L255 115L260 115L260 110L265 110L265 105L260 105z"/>
<path style="fill:#e9bb5b; stroke:none;" d="M570 105L570 110L575 110L575 105L570 105z"/>
<path style="fill:#1871be; stroke:none;" d="M245 110L245 115L250 115L250 110L245 110z"/>
<path style="fill:#b1d4e5; stroke:none;" d="M530 110L530 115L535 115L535 110L530 110M555 110L555 115L560 115L560 110L555 110z"/>
<path style="fill:#cc4449; stroke:none;" d="M220 115L220 120L225 120L225 115L220 115M390 115L390 120L395 120L395 115L390 115M240 120L240 125L245 125L245 120L240 120z"/>
<path style="fill:#e9bb5b; stroke:none;" d="M60 185L60 190L50 190L50 195L40 195L40 200L35 200L35 205L30 205L30 210L25 210L25 220L20 220L20 230L15 230L15 250L20 250L20 260L25 260L25 270L30 270L30 275L35 275L35 280L40 280L40 285L50 285L50 290L60 290L60 295L90 295L90 290L100 290L100 285L110 285L110 280L115 280L115 275L120 275L120 270L125 270L125 260L130 260L130 250L135 250L135 230L130 230L130 220L125 220L125 210L120 210L120 205L115 205L115 200L110 200L110 195L100 195L100 190L90 190L90 185L60 185M225 185L225 190L215 190L215 195L205 195L205 200L200 200L200 205L195 205L195 210L190 210L190 220L185 220L185 230L180 230L180 250L185 250L185 260L190 260L190 270L195 270L195 275L200 275L200 280L205 280L205 285L215 285L215 290L225 290L225 295L250 295L250 290L260 290L260 285L270 285L270 280L275 280L275 275L280 275L280 270L285 270L285 260L290 260L290 250L295 250L295 230L290 230L290 220L285 220L285 210L280 210L280 205L275 205L275 200L270 200L270 195L260 195L260 190L250 190L250 185L225 185M380 185L380 190L370 190L370 195L360 195L360 200L355 200L355 205L350 205L350 210L345 210L345 220L340 220L340 230L335 230L335 250L340 250L340 260L345 260L345 270L350 270L350 275L355 275L355 280L360 280L360 285L370 285L370 290L380 290L380 295L410 295L410 290L420 290L420 285L430 285L430 280L435 280L435 275L440 275L440 270L445 270L445 260L450 260L450 250L455 250L455 230L450 230L450 220L445 220L445 210L440 210L440 205L435 205L435 200L430 200L430 195L420 195L420 190L410 190L410 185L380 185M540 185L540 190L530 190L530 195L520 195L520 200L515 200L515 205L510 205L510 210L505 210L505 220L500 220L500 230L495 230L495 250L500 250L500 260L505 260L505 270L510 270L510 275L515 275L515 280L520 280L520 285L530 285L530 290L540 290L540 295L570 295L570 290L580 290L580 285L590 285L590 280L595 280L595 275L600 275L600 270L605 270L605 260L610 260L610 250L615 250L615 230L610 230L610 220L605 220L605 210L600 210L600 205L595 205L595 200L590 200L590 195L580 195L580 190L570 190L570 185L540 185z"/>
<path style="fill:#cc4449; stroke:none;" d="M60 190L60 195L55 195L55 200L45 200L45 205L40 205L40 210L35 210L35 215L30 215L30 225L25 225L25 255L30 255L30 265L35 265L35 270L40 270L40 275L45 275L45 280L55 280L55 285L60 285L60 290L90 290L90 285L95 285L95 280L105 280L105 275L110 275L110 270L115 270L115 265L120 265L120 260L115 260L115 255L125 255L125 225L120 225L120 215L115 215L115 210L105 210L105 200L95 200L95 195L90 195L90 190L60 190z"/>
<path style="fill:#1871be; stroke:none;" d="M225 190L225 195L220 195L220 200L210 200L210 205L205 205L205 210L200 210L200 215L195 215L195 225L190 225L190 255L195 255L195 265L200 265L200 270L205 270L205 275L210 275L210 280L220 280L220 285L240 285L240 280L245 280L245 285L255 285L255 280L270 280L270 275L275 275L275 270L280 270L280 260L285 260L285 220L280 220L280 210L275 210L275 205L270 205L270 200L260 200L260 195L250 195L250 190L225 190z"/>
<path style="fill:#b1d4e5; stroke:none;" d="M385 190L385 195L370 195L370 200L365 200L365 205L360 205L360 210L355 210L355 215L350 215L350 225L345 225L345 255L350 255L350 265L355 265L355 270L360 270L360 275L365 275L365 280L370 280L370 285L385 285L385 290L405 290L405 285L420 285L420 280L425 280L425 275L430 275L430 270L435 270L435 265L440 265L440 255L445 255L445 250L440 250L440 245L445 245L445 225L440 225L440 215L435 215L435 210L430 210L430 205L425 205L425 200L420 200L420 195L405 195L405 190L385 190z"/>
<path style="fill:#cc4449; stroke:none;" d="M240 195L240 200L245 200L245 195L240 195M530 195L530 200L525 200L525 205L520 205L520 210L515 210L515 215L510 215L510 220L505 220L505 260L510 260L510 265L515 265L515 270L520 270L520 275L525 275L525 280L530 280L530 285L580 285L580 280L585 280L585 275L590 275L590 270L595 270L595 265L600 265L600 260L605 260L605 220L600 220L600 215L595 215L595 210L590 210L590 205L585 205L585 200L580 200L580 195L530 195z"/>
<path style="fill:#1871be; stroke:none;" d="M75 200L75 205L70 205L70 210L75 210L75 205L80 205L80 200L75 200z"/>
<path style="fill:#cc4449; stroke:none;" d="M225 200L225 205L220 205L220 210L225 210L225 205L230 205L230 200L225 200M380 200L380 205L375 205L375 210L380 210L380 205L385 205L385 200L380 200z"/>
<path style="fill:#1871be; stroke:none;" d="M400 200L400 205L395 205L395 210L400 210L400 205L405 205L405 200L400 200z"/>
<path style="fill:#b1d4e5; stroke:none;" d="M545 200L545 205L540 205L540 210L545 210L545 205L550 205L550 200L545 200z"/>
<path style="fill:#cc4449; stroke:none;" d="M250 205L250 210L255 210L255 215L260 215L260 210L255 210L255 205L250 205z"/>
<path style="fill:#1871be; stroke:none;" d="M560 205L560 210L555 210L555 215L560 215L560 210L565 210L565 205L560 205z"/>
<path style="fill:#e9bb5b; stroke:none;" d="M50 210L50 215L45 215L45 220L50 220L50 215L55 215L55 210L50 210M100 210L100 215L105 215L105 210L100 210z"/>
<path style="fill:#1871be; stroke:none;" d="M360 210L360 215L365 215L365 220L370 220L370 215L365 215L365 210L360 210z"/>
<path style="fill:#cc4449; stroke:none;" d="M385 210L385 215L390 215L390 210L385 210M410 210L410 215L415 215L415 210L410 210z"/>
<path style="fill:#1871be; stroke:none;" d="M35 215L35 220L40 220L40 215L35 215z"/>
<path style="fill:#cc4449; stroke:none;" d="M220 215L220 220L225 220L225 225L230 225L230 220L225 220L225 215L220 215z"/>
<path style="fill:#e9bb5b; stroke:none;" d="M245 215L245 220L250 220L250 225L255 225L255 220L250 220L250 215L245 215z"/>
<path style="fill:#1871be; stroke:none;" d="M425 215L425 220L430 220L430 225L435 225L435 220L430 220L430 215L425 215z"/>
<path style="fill:#b1d4e5; stroke:none;" d="M570 215L570 220L575 220L575 215L570 215z"/>
<path style="fill:#1871be; stroke:none;" d="M120 220L120 225L125 225L125 220L120 220z"/>
<path style="fill:#cc4449; stroke:none;" d="M205 220L205 225L210 225L210 220L205 220M355 220L355 225L360 225L360 230L365 230L365 225L360 225L360 220L355 220z"/>
<path style="fill:#030203; stroke:none;" d="M385 220L385 225L380 225L380 230L375 230L375 245L380 245L380 250L385 250L385 255L405 255L405 250L410 250L410 245L415 245L415 230L410 230L410 225L405 225L405 220L385 220z"/>
<path style="fill:#1871be; stroke:none;" d="M580 220L580 225L575 225L575 230L580 230L580 225L585 225L585 220L580 220M35 225L35 230L30 230L30 235L35 235L35 230L40 230L40 225L35 225M50 225L50 230L55 230L55 225L50 225z"/>
<path style="fill:#030203; stroke:none;" d="M60 225L60 235L55 235L55 255L65 255L65 260L80 260L80 255L90 255L90 235L85 235L85 225L60 225z"/>
<path style="fill:#1871be; stroke:none;" d="M115 225L115 230L120 230L120 225L115 225z"/>
<path style="fill:#e9bb5b; stroke:none;" d="M195 225L195 230L200 230L200 235L205 235L205 230L200 230L200 225L195 225z"/>
<path style="fill:#030203; stroke:none;" d="M230 225L230 230L220 230L220 250L230 250L230 255L245 255L245 250L255 250L255 230L245 230L245 225L230 225z"/>
<path style="fill:#cc4449; stroke:none;" d="M275 225L275 230L280 230L280 225L275 225z"/>
<path style="fill:#b1d4e5; stroke:none;" d="M385 225L385 230L380 230L380 245L385 245L385 250L405 250L405 245L410 245L410 230L405 230L405 225L385 225z"/>
<path style="fill:#030203; stroke:none;" d="M545 225L545 230L540 230L540 235L535 235L535 250L540 250L540 255L545 255L545 260L565 260L565 255L570 255L570 250L575 250L575 235L570 235L570 230L565 230L565 225L545 225z"/>
<path style="fill:#b1d4e5; stroke:none;" d="M65 230L65 235L60 235L60 250L65 250L65 255L80 255L80 250L85 250L85 235L80 235L80 230L65 230M230 230L230 235L225 235L225 245L230 245L230 250L245 250L245 245L250 245L250 235L245 235L245 230L230 230z"/>
<path style="fill:#cc4449; stroke:none;" d="M430 230L430 235L435 235L435 230L430 230z"/>
<path style="fill:#b1d4e5; stroke:none;" d="M545 230L545 235L540 235L540 250L545 250L545 255L565 255L565 250L570 250L570 235L565 235L565 230L545 230z"/>
<path style="fill:#cc4449; stroke:none;" d="M270 235L270 240L275 240L275 235L270 235M360 235L360 240L365 240L365 235L360 235M415 235L415 240L420 240L420 235L415 235z"/>
<path style="fill:#b1d4e5; stroke:none;" d="M515 235L515 240L520 240L520 245L525 245L525 240L520 240L520 235L515 235M595 235L595 240L590 240L590 245L595 245L595 240L600 240L600 235L595 235z"/>
<path style="fill:#e9bb5b; stroke:none;" d="M100 240L100 245L105 245L105 250L110 250L110 245L105 245L105 240L100 240z"/>
<path style="fill:#cc4449; stroke:none;" d="M195 240L195 245L200 245L200 250L205 250L205 245L200 245L200 240L195 240M420 240L420 245L425 245L425 240L420 240M350 245L350 250L355 250L355 245L350 245M370 245L370 250L375 250L375 245L370 245M440 245L440 250L445 250L445 245L440 245z"/>
<path style="fill:#1871be; stroke:none;" d="M110 250L110 255L115 255L115 250L110 250z"/>
<path style="fill:#cc4449; stroke:none;" d="M275 250L275 255L270 255L270 260L275 260L275 255L280 255L280 250L275 250z"/>
<path style="fill:#e9bb5b; stroke:none;" d="M50 255L50 260L55 260L55 255L50 255z"/>
<path style="fill:#1871be; stroke:none;" d="M115 255L115 260L120 260L120 255L115 255z"/>
<path style="fill:#e9bb5b; stroke:none;" d="M250 255L250 260L245 260L245 265L250 265L250 260L255 260L255 255L250 255z"/>
<path style="fill:#cc4449; stroke:none;" d="M425 255L425 260L420 260L420 265L425 265L425 260L430 260L430 255L425 255z"/>
<path style="fill:#1871be; stroke:none;" d="M520 255L520 260L525 260L525 265L530 265L530 260L525 260L525 255L520 255z"/>
<path style="fill:#e9bb5b; stroke:none;" d="M55 260L55 265L60 265L60 260L55 260z"/>
<path style="fill:#1871be; stroke:none;" d="M105 260L105 265L110 265L110 260L105 260M370 260L370 265L365 265L365 270L370 270L370 265L375 265L375 260L370 260M40 265L40 270L45 270L45 265L40 265z"/>
<path style="fill:#cc4449; stroke:none;" d="M225 265L225 270L230 270L230 265L225 265M260 265L260 270L255 270L255 275L260 275L260 270L265 270L265 265L260 265M400 265L400 270L405 270L405 275L410 275L410 270L405 270L405 265L400 265z"/>
<path style="fill:#b1d4e5; stroke:none;" d="M530 270L530 275L535 275L535 270L530 270M555 270L555 275L560 275L560 270L555 270z"/>
<path style="fill:#cc4449; stroke:none;" d="M220 275L220 280L225 280L225 275L220 275M390 275L390 280L395 280L395 275L390 275M240 280L240 285L245 285L245 280L240 280z"/>
<path style="fill:#e9bb5b; stroke:none;" d="M60 345L60 350L50 350L50 355L40 355L40 360L35 360L35 365L30 365L30 370L25 370L25 380L20 380L20 390L15 390L15 410L20 410L20 420L25 420L25 430L30 430L30 435L35 435L35 440L40 440L40 445L50 445L50 450L60 450L60 455L90 455L90 450L100 450L100 445L110 445L110 440L115 440L115 435L120 435L120 430L125 430L125 420L130 420L130 410L135 410L135 390L130 390L130 380L125 380L125 370L120 370L120 365L115 365L115 360L110 360L110 355L100 355L100 350L90 350L90 345L60 345M225 345L225 350L215 350L215 355L205 355L205 360L200 360L200 365L195 365L195 370L190 370L190 380L185 380L185 390L180 390L180 410L185 410L185 420L190 420L190 430L195 430L195 435L200 435L200 440L205 440L205 445L215 445L215 450L225 450L225 455L250 455L250 450L260 450L260 445L270 445L270 440L275 440L275 435L280 435L280 430L285 430L285 420L290 420L290 410L295 410L295 390L290 390L290 380L285 380L285 370L280 370L280 365L275 365L275 360L270 360L270 355L260 355L260 350L250 350L250 345L225 345M380 345L380 350L370 350L370 355L360 355L360 360L355 360L355 365L350 365L350 370L345 370L345 380L340 380L340 390L335 390L335 410L340 410L340 420L345 420L345 430L350 430L350 435L355 435L355 440L360 440L360 445L370 445L370 450L380 450L380 455L410 455L410 450L420 450L420 445L430 445L430 440L435 440L435 435L440 435L440 430L445 430L445 420L450 420L450 410L455 410L455 390L450 390L450 380L445 380L445 370L440 370L440 365L435 365L435 360L430 360L430 355L420 355L420 350L410 350L410 345L380 345M540 345L540 350L530 350L530 355L520 355L520 360L515 360L515 365L510 365L510 370L505 370L505 380L500 380L500 390L495 390L495 410L500 410L500 420L505 420L505 430L510 430L510 435L515 435L515 440L520 440L520 445L530 445L530 450L540 450L540 455L570 455L570 450L580 450L580 445L590 445L590 440L595 440L595 435L600 435L600 430L605 430L605 420L610 420L610 410L615 410L615 390L610 390L610 380L605 380L605 370L600 370L600 365L595 365L595 360L590 360L590 355L580 355L580 350L570 350L570 345L540 345z"/>
<path style="fill:#cc4449; stroke:none;" d="M60 350L60 355L55 355L55 360L45 360L45 365L40 365L40 370L35 370L35 375L30 375L30 385L25 385L25 415L30 415L30 425L35 425L35 430L40 430L40 435L45 435L45 440L55 440L55 445L60 445L60 450L90 450L90 445L95 445L95 440L105 440L105 435L110 435L110 430L115 430L115 425L120 425L120 420L115 420L115 415L125 415L125 385L120 385L120 375L115 375L115 370L105 370L105 360L95 360L95 355L90 355L90 350L60 350M225 350L225 355L220 355L220 360L210 360L210 365L205 365L205 370L200 370L200 375L195 375L195 385L190 385L190 415L195 415L195 425L200 425L200 430L205 430L205 435L210 435L210 440L220 440L220 445L255 445L255 440L270 440L270 435L275 435L275 430L280 430L280 420L285 420L285 380L280 380L280 370L275 370L275 365L270 365L270 360L260 360L260 355L250 355L250 350L225 350z"/>
<path style="fill:#b1d4e5; stroke:none;" d="M385 350L385 355L370 355L370 360L365 360L365 365L360 365L360 370L355 370L355 375L350 375L350 385L345 385L345 415L350 415L350 425L355 425L355 430L360 430L360 435L365 435L365 440L370 440L370 445L385 445L385 450L405 450L405 445L420 445L420 440L425 440L425 435L430 435L430 430L435 430L435 425L440 425L440 415L445 415L445 410L440 410L440 405L445 405L445 385L440 385L440 375L435 375L435 370L430 370L430 365L425 365L425 360L420 360L420 355L405 355L405 350L385 350z"/>
<path style="fill:#cc4449; stroke:none;" d="M530 355L530 360L525 360L525 365L520 365L520 370L515 370L515 375L510 375L510 380L505 380L505 420L510 420L510 425L515 425L515 430L520 430L520 435L525 435L525 440L530 440L530 445L580 445L580 440L585 440L585 435L590 435L590 430L595 430L595 425L600 425L600 420L605 420L605 380L600 380L600 375L595 375L595 370L590 370L590 365L585 365L585 360L580 360L580 355L530 355z"/>
<path style="fill:#1871be; stroke:none;" d="M75 360L75 365L70 365L70 370L75 370L75 365L80 365L80 360L75 360z"/>
<path style="fill:#cc4449; stroke:none;" d="M380 360L380 365L375 365L375 370L380 370L380 365L385 365L385 360L380 360z"/>
<path style="fill:#e9bb5b; stroke:none;" d="M400 360L400 365L395 365L395 370L400 370L400 365L405 365L405 360L400 360z"/>
<path style="fill:#b1d4e5; stroke:none;" d="M545 360L545 365L540 365L540 370L545 370L545 365L550 365L550 360L545 360z"/>
<path style="fill:#e9bb5b; stroke:none;" d="M50 370L50 375L45 375L45 380L50 380L50 375L55 375L55 370L50 370M100 370L100 375L105 375L105 370L100 370z"/>
<path style="fill:#1871be; stroke:none;" d="M210 370L210 375L215 375L215 370L210 370M235 370L235 375L240 375L240 370L235 370z"/>
<path style="fill:#e9bb5b; stroke:none;" d="M360 370L360 375L365 375L365 380L370 380L370 375L365 375L365 370L360 370z"/>
<path style="fill:#cc4449; stroke:none;" d="M385 370L385 375L390 375L390 370L385 370M410 370L410 375L415 375L415 370L410 370z"/>
<path style="fill:#1871be; stroke:none;" d="M35 375L35 380L40 380L40 375L35 375z"/>
<path style="fill:#e9bb5b; stroke:none;" d="M245 375L245 380L250 380L250 385L255 385L255 380L250 380L250 375L245 375z"/>
<path style="fill:#1871be; stroke:none;" d="M425 375L425 380L430 380L430 385L435 385L435 380L430 380L430 375L425 375z"/>
<path style="fill:#b1d4e5; stroke:none;" d="M570 375L570 380L575 380L575 375L570 375z"/>
<path style="fill:#1871be; stroke:none;" d="M120 380L120 385L125 385L125 380L120 380M260 380L260 385L265 385L265 380L260 380z"/>
<path style="fill:#cc4449; stroke:none;" d="M355 380L355 385L360 385L360 390L365 390L365 385L360 385L360 380L355 380z"/>
<path style="fill:#030203; stroke:none;" d="M385 380L385 385L380 385L380 390L375 390L375 405L380 405L380 410L385 410L385 415L405 415L405 410L410 410L410 405L415 405L415 390L410 390L410 385L405 385L405 380L385 380z"/>
<path style="fill:#1871be; stroke:none;" d="M35 385L35 390L30 390L30 395L35 395L35 390L40 390L40 385L35 385M50 385L50 390L55 390L55 385L50 385z"/>
<path style="fill:#030203; stroke:none;" d="M60 385L60 395L55 395L55 415L65 415L65 420L80 420L80 415L90 415L90 395L85 395L85 385L60 385z"/>
<path style="fill:#1871be; stroke:none;" d="M115 385L115 390L120 390L120 385L115 385z"/>
<path style="fill:#e9bb5b; stroke:none;" d="M195 385L195 390L200 390L200 395L205 395L205 390L200 390L200 385L195 385z"/>
<path style="fill:#030203; stroke:none;" d="M230 385L230 390L220 390L220 410L230 410L230 415L245 415L245 410L255 410L255 390L245 390L245 385L230 385z"/>
<path style="fill:#b1d4e5; stroke:none;" d="M385 385L385 390L380 390L380 405L385 405L385 410L405 410L405 405L410 405L410 390L405 390L405 385L385 385z"/>
<path style="fill:#030203; stroke:none;" d="M545 385L545 390L540 390L540 395L535 395L535 410L540 410L540 415L545 415L545 420L565 420L565 415L570 415L570 410L575 410L575 395L570 395L570 390L565 390L565 385L545 385z"/>
<path style="fill:#b1d4e5; stroke:none;" d="M65 390L65 395L60 395L60 410L65 410L65 415L80 415L80 410L85 410L85 395L80 395L80 390L65 390M230 390L230 395L225 395L225 405L230 405L230 410L245 410L245 405L250 405L250 395L245 395L245 390L230 390z"/>
<path style="fill:#cc4449; stroke:none;" d="M430 390L430 395L435 395L435 390L430 390z"/>
<path style="fill:#b1d4e5; stroke:none;" d="M545 390L545 395L540 395L540 410L545 410L545 415L565 415L565 410L570 410L570 395L565 395L565 390L545 390z"/>
<path style="fill:#cc4449; stroke:none;" d="M360 395L360 400L365 400L365 395L360 395M415 395L415 400L420 400L420 395L415 395z"/>
<path style="fill:#b1d4e5; stroke:none;" d="M515 395L515 400L520 400L520 405L525 405L525 400L520 400L520 395L515 395M595 395L595 400L590 400L590 405L595 405L595 400L600 400L600 395L595 395z"/>
<path style="fill:#e9bb5b; stroke:none;" d="M100 400L100 405L105 405L105 410L110 410L110 405L105 405L105 400L100 400z"/>
<path style="fill:#1871be; stroke:none;" d="M210 400L210 405L215 405L215 400L210 400z"/>
<path style="fill:#cc4449; stroke:none;" d="M420 400L420 405L425 405L425 400L420 400M350 405L350 410L355 410L355 405L350 405M370 405L370 410L375 410L375 405L370 405M440 405L440 410L445 410L445 405L440 405z"/>
<path style="fill:#1871be; stroke:none;" d="M110 410L110 415L115 415L115 410L110 410M260 410L260 415L265 415L265 410L260 410z"/>
<path style="fill:#e9bb5b; stroke:none;" d="M50 415L50 420L55 420L55 415L50 415z"/>
<path style="fill:#1871be; stroke:none;" d="M115 415L115 420L120 420L120 415L115 415z"/>
<path style="fill:#e9bb5b; stroke:none;" d="M250 415L250 420L245 420L245 425L250 425L250 420L255 420L255 415L250 415z"/>
<path style="fill:#cc4449; stroke:none;" d="M425 415L425 420L420 420L420 425L425 425L425 420L430 420L430 415L425 415z"/>
<path style="fill:#e9bb5b; stroke:none;" d="M55 420L55 425L60 425L60 420L55 420z"/>
<path style="fill:#1871be; stroke:none;" d="M105 420L105 425L110 425L110 420L105 420M210 420L210 425L215 425L215 420L210 420z"/>
<path style="fill:#e9bb5b; stroke:none;" d="M370 420L370 425L365 425L365 430L370 430L370 425L375 425L375 420L370 420z"/>
<path style="fill:#1871be; stroke:none;" d="M40 425L40 430L45 430L45 425L40 425z"/>
<path style="fill:#cc4449; stroke:none;" d="M400 425L400 430L405 430L405 435L410 435L410 430L405 430L405 425L400 425z"/>
<path style="fill:#1871be; stroke:none;" d="M245 430L245 435L250 435L250 430L245 430z"/>
<path style="fill:#b1d4e5; stroke:none;" d="M530 430L530 435L535 435L535 430L530 430M555 430L555 435L560 435L560 430L555 430z"/>
<path style="fill:#cc4449; stroke:none;" d="M390 435L390 440L395 440L395 435L390 435z"/>
<path style="fill:#e9bb5b; stroke:none;" d="M60 505L60 510L50 510L50 515L40 515L40 520L35 520L35 525L30 525L30 530L25 530L25 540L20 540L20 550L15 550L15 570L20 570L20 580L25 580L25 590L30 590L30 595L35 595L35 600L40 600L40 605L50 605L50 610L60 610L60 615L90 615L90 610L100 610L100 605L110 605L110 600L115 600L115 595L120 595L120 590L125 590L125 580L130 580L130 570L135 570L135 550L130 550L130 540L125 540L125 530L120 530L120 525L115 525L115 520L110 520L110 515L100 515L100 510L90 510L90 505L60 505M225 505L225 510L215 510L215 515L205 515L205 520L200 520L200 525L195 525L195 530L190 530L190 540L185 540L185 550L180 550L180 570L185 570L185 580L190 580L190 590L195 590L195 595L200 595L200 600L205 600L205 605L215 605L215 610L225 610L225 615L250 615L250 610L260 610L260 605L270 605L270 600L275 600L275 595L280 595L280 590L285 590L285 580L290 580L290 570L295 570L295 550L290 550L290 540L285 540L285 530L280 530L280 525L275 525L275 520L270 520L270 515L260 515L260 510L250 510L250 505L225 505M380 505L380 510L370 510L370 515L360 515L360 520L355 520L355 525L350 525L350 530L345 530L345 540L340 540L340 550L335 550L335 570L340 570L340 580L345 580L345 590L350 590L350 595L355 595L355 600L360 600L360 605L370 605L370 610L380 610L380 615L410 615L410 610L420 610L420 605L430 605L430 600L435 600L435 595L440 595L440 590L445 590L445 580L450 580L450 570L455 570L455 550L450 550L450 540L445 540L445 530L440 530L440 525L435 525L435 520L430 520L430 515L420 515L420 510L410 510L410 505L380 505M540 505L540 510L530 510L530 515L520 515L520 520L515 520L515 525L510 525L510 530L505 530L505 540L500 540L500 550L495 550L495 570L500 570L500 580L505 580L505 590L510 590L510 595L515 595L515 600L520 600L520 605L530 605L530 610L540 610L540 615L570 615L570 610L580 610L580 605L590 605L590 600L595 600L595 595L600 595L600 590L605 590L605 580L610 580L610 570L615 570L615 550L610 550L610 540L605 540L605 530L600 530L600 525L595 525L595 520L590 520L590 515L580 515L580 510L570 510L570 505L540 505z"/>
<path style="fill:#cc4449; stroke:none;" d="M70 510L70 515L75 515L75 510L70 510z"/>
<path style="fill:#b1d4e5; stroke:none;" d="M225 510L225 515L220 515L220 520L210 520L210 525L205 525L205 530L200 530L200 535L195 535L195 545L190 545L190 575L195 575L195 585L200 585L200 590L205 590L205 595L210 595L210 600L220 600L220 605L240 605L240 600L245 600L245 605L255 605L255 600L270 600L270 595L275 595L275 590L280 590L280 580L285 580L285 540L280 540L280 530L275 530L275 525L270 525L270 520L260 520L260 515L250 515L250 510L225 510z"/>
<path style="fill:#030203; stroke:none;" d="M385 510L385 515L370 515L370 520L365 520L365 525L360 525L360 530L355 530L355 535L350 535L350 545L345 545L345 575L350 575L350 585L355 585L355 590L360 590L360 595L365 595L365 600L370 600L370 605L385 605L385 610L405 610L405 605L420 605L420 600L425 600L425 595L430 595L430 590L435 590L435 585L440 585L440 575L445 575L445 570L440 570L440 565L445 565L445 545L440 545L440 535L435 535L435 530L430 530L430 525L425 525L425 520L420 520L420 515L405 515L405 510L385 510z"/>
<path style="fill:#cc4449; stroke:none;" d="M240 515L240 520L245 520L245 515L240 515M55 520L55 525L60 525L60 520L55 520z"/>
<path style="fill:#1871be; stroke:none;" d="M75 520L75 525L70 525L70 530L75 530L75 525L80 525L80 520L75 520z"/>
<path style="fill:#cc4449; stroke:none;" d="M225 520L225 525L220 525L220 530L225 530L225 525L230 525L230 520L225 520M380 520L380 525L375 525L375 530L380 530L380 525L385 525L385 520L380 520z"/>
<path style="fill:#e9bb5b; stroke:none;" d="M400 520L400 525L395 525L395 530L400 530L400 525L405 525L405 520L400 520z"/>
<path style="fill:#b1d4e5; stroke:none;" d="M545 520L545 525L540 525L540 530L545 530L545 525L550 525L550 520L545 520z"/>
<path style="fill:#cc4449; stroke:none;" d="M90 525L90 530L95 530L95 525L90 525M250 525L250 530L255 530L255 535L260 535L260 530L255 530L255 525L250 525z"/>
<path style="fill:#b1d4e5; stroke:none;" d="M560 525L560 530L555 530L555 535L560 535L560 530L565 530L565 525L560 525z"/>
<path style="fill:#1871be; stroke:none;" d="M210 530L210 535L215 535L215 530L210 530M235 530L235 535L240 535L240 530L235 530z"/>
<path style="fill:#e9bb5b; stroke:none;" d="M360 530L360 535L365 535L365 540L370 540L370 535L365 535L365 530L360 530z"/>
<path style="fill:#cc4449; stroke:none;" d="M385 530L385 535L390 535L390 530L385 530M410 530L410 535L415 535L415 530L410 530z"/>
<path style="fill:#1871be; stroke:none;" d="M35 535L35 540L40 540L40 535L35 535z"/>
<path style="fill:#e9bb5b; stroke:none;" d="M220 535L220 540L225 540L225 545L230 545L230 540L225 540L225 535L220 535M245 535L245 540L250 540L250 545L255 545L255 540L250 540L250 535L245 535z"/>
<path style="fill:#1871be; stroke:none;" d="M425 535L425 540L430 540L430 545L435 545L435 540L430 540L430 535L425 535z"/>
<path style="fill:#cc4449; stroke:none;" d="M520 535L520 540L525 540L525 545L530 545L530 540L525 540L525 535L520 535z"/>
<path style="fill:#b1d4e5; stroke:none;" d="M570 535L570 540L575 540L575 535L570 535z"/>
<path style="fill:#cc4449; stroke:none;" d="M85 540L85 545L90 545L90 550L95 550L95 545L90 545L90 540L85 540z"/>
<path style="fill:#1871be; stroke:none;" d="M120 540L120 545L115 545L115 550L120 550L120 545L125 545L125 540L120 540z"/>
<path style="fill:#cc4449; stroke:none;" d="M205 540L205 545L210 545L210 540L205 540z"/>
<path style="fill:#1871be; stroke:none;" d="M260 540L260 545L265 545L265 540L260 540z"/>
<path style="fill:#cc4449; stroke:none;" d="M355 540L355 545L360 545L360 550L365 550L365 545L360 545L360 540L355 540z"/>
<path style="fill:#b1d4e5; stroke:none;" d="M415 540L415 545L420 545L420 550L425 550L425 545L420 545L420 540L415 540M580 540L580 545L575 545L575 550L580 550L580 545L585 545L585 540L580 540z"/>
<path style="fill:#1871be; stroke:none;" d="M35 545L35 550L30 550L30 555L35 555L35 550L40 550L40 545L35 545M50 545L50 550L55 550L55 545L50 545z"/>
<path style="fill:#030203; stroke:none;" d="M60 545L60 555L55 555L55 575L65 575L65 580L80 580L80 575L90 575L90 555L85 555L85 545L60 545z"/>
<path style="fill:#e9bb5b; stroke:none;" d="M195 545L195 550L200 550L200 555L205 555L205 550L200 550L200 545L195 545z"/>
<path style="fill:#030203; stroke:none;" d="M230 545L230 550L220 550L220 570L230 570L230 575L245 575L245 570L255 570L255 550L245 550L245 545L230 545z"/>
<path style="fill:#cc4449; stroke:none;" d="M275 545L275 550L280 550L280 545L275 545z"/>
<path style="fill:#b1d4e5; stroke:none;" d="M385 545L385 550L380 550L380 565L385 565L385 570L405 570L405 565L410 565L410 550L405 550L405 545L385 545z"/>
<path style="fill:#030203; stroke:none;" d="M545 545L545 550L540 550L540 555L535 555L535 570L540 570L540 575L545 575L545 580L565 580L565 575L570 575L570 570L575 570L575 555L570 555L570 550L565 550L565 545L545 545z"/>
<path style="fill:#b1d4e5; stroke:none;" d="M65 550L65 555L60 555L60 570L65 570L65 575L80 575L80 570L85 570L85 555L80 555L80 550L65 550M230 550L230 555L225 555L225 565L230 565L230 570L245 570L245 565L250 565L250 555L245 555L245 550L230 550z"/>
<path style="fill:#cc4449; stroke:none;" d="M430 550L430 555L435 555L435 550L430 550z"/>
<path style="fill:#b1d4e5; stroke:none;" d="M545 550L545 555L540 555L540 570L545 570L545 575L565 575L565 570L570 570L570 555L565 555L565 550L545 550z"/>
<path style="fill:#cc4449; stroke:none;" d="M270 555L270 560L275 560L275 555L270 555M360 555L360 560L365 560L365 555L360 555M415 555L415 560L420 560L420 565L425 565L425 560L420 560L420 555L415 555z"/>
<path style="fill:#b1d4e5; stroke:none;" d="M515 555L515 560L520 560L520 565L525 565L525 560L520 560L520 555L515 555M595 555L595 560L590 560L590 565L595 565L595 560L600 560L600 555L595 555z"/>
<path style="fill:#cc4449; stroke:none;" d="M35 560L35 570L40 570L40 560L35 560M115 560L115 565L120 565L120 560L115 560M195 560L195 565L200 565L200 570L205 570L205 565L200 565L200 560L195 560z"/>
<path style="fill:#1871be; stroke:none;" d="M210 560L210 565L215 565L215 560L210 560z"/>
<path style="fill:#b1d4e5; stroke:none;" d="M435 560L435 565L440 565L440 560L435 560z"/>
<path style="fill:#cc4449; stroke:none;" d="M350 565L350 570L355 570L355 565L350 565M370 565L370 570L375 570L375 565L370 565M440 565L440 570L445 570L445 565L440 565z"/>
<path style="fill:#1871be; stroke:none;" d="M110 570L110 575L115 575L115 580L120 580L120 575L115 575L115 570L110 570M260 570L260 575L265 575L265 570L260 570z"/>
<path style="fill:#e9bb5b; stroke:none;" d="M275 570L275 575L270 575L270 580L275 580L275 575L280 575L280 570L275 570z"/>
<path style="fill:#cc4449; stroke:none;" d="M590 570L590 575L585 575L585 580L590 580L590 575L595 575L595 570L590 570z"/>
<path style="fill:#e9bb5b; stroke:none;" d="M250 575L250 580L245 580L245 585L250 585L250 580L255 580L255 575L250 575z"/>
<path style="fill:#cc4449; stroke:none;" d="M425 575L425 580L420 580L420 585L425 585L425 580L430 580L430 575L425 575z"/>
<path style="fill:#b1d4e5; stroke:none;" d="M520 575L520 580L525 580L525 585L530 585L530 580L525 580L525 575L520 575z"/>
<path style="fill:#cc4449; stroke:none;" d="M95 580L95 590L100 590L100 580L95 580z"/>
<path style="fill:#1871be; stroke:none;" d="M105 580L105 585L110 585L110 580L105 580M210 580L210 585L215 585L215 580L210 580z"/>
<path style="fill:#e9bb5b; stroke:none;" d="M370 580L370 585L365 585L365 590L370 590L370 585L375 585L375 580L370 580z"/>
<path style="fill:#1871be; stroke:none;" d="M40 585L40 590L45 590L45 585L40 585z"/>
<path style="fill:#cc4449; stroke:none;" d="M225 585L225 590L230 590L230 585L225 585M260 585L260 590L255 590L255 595L260 595L260 590L265 590L265 585L260 585M400 585L400 590L405 590L405 595L410 595L410 590L405 590L405 585L400 585M570 585L570 590L575 590L575 585L570 585z"/>
<path style="fill:#1871be; stroke:none;" d="M245 590L245 595L250 595L250 590L245 590z"/>
<path style="fill:#b1d4e5; stroke:none;" d="M385 590L385 595L380 595L380 600L385 600L385 595L390 595L390 590L385 590M530 590L530 595L535 595L535 590L530 590M555 590L555 595L560 595L560 590L555 590z"/>
<path style="fill:#cc4449; stroke:none;" d="M55 595L55 600L60 600L60 595L55 595M75 595L75 600L80 600L80 595L75 595M220 595L220 600L225 600L225 595L220 595M390 595L390 600L395 600L395 595L390 595z"/>
<path style="fill:#b1d4e5; stroke:none;" d="M415 595L415 600L420 600L420 595L415 595z"/>
<path style="fill:#cc4449; stroke:none;" d="M240 600L240 605L245 605L245 600L240 600z"/>
</svg>
